<?xml version="1.0" encoding="UTF-8"?>
<!DOCTYPE svg PUBLIC "-//W3C//DTD SVG 1.1//EN" "http://www.w3.org/Graphics/SVG/1.1/DTD/svg11.dtd">
<!-- Creator: CorelDRAW X7 -->
<svg xmlns="http://www.w3.org/2000/svg" xml:space="preserve" width="59.1802mm" height="7.3938mm" version="1.1" style="shape-rendering:geometricPrecision; text-rendering:geometricPrecision; image-rendering:optimizeQuality; fill-rule:evenodd; clip-rule:evenodd"
viewBox="0 0 2771 346"
 xmlns:xlink="http://www.w3.org/1999/xlink">
 <defs>
  <style type="text/css">
   <![CDATA[
    .str0 {stroke:#FEFEFE;stroke-width:11.7066}
    .str2 {stroke:#FEFEFE;stroke-width:9.36526}
    .str1 {stroke:#FEFEFE;stroke-width:3.56816}
    .fil2 {fill:none}
    .fil1 {fill:#FEFEFE}
    .fil0 {fill:#234F2D}
   ]]>
  </style>
 </defs>
 <g id="圖層_x0020_1">
  <metadata id="CorelCorpID_0Corel-Layer"/>
  <path class="fil0 str0" d="M73 6l2625 0c37,0 67,30 67,67l0 200c0,37 -30,67 -67,67l-2625 0c-37,0 -67,-30 -67,-67l0 -200c0,-37 30,-67 67,-67z"/>
  <path class="fil1 str1" d="M1245 183l0 43 -12 0 0 -114 30 0c12,0 22,3 28,9 7,6 10,14 10,25 0,11 -4,20 -11,27 -8,7 -18,10 -30,10l-15 0zm0 -59l0 47 14 0c10,0 17,-2 22,-6 5,-4 7,-10 7,-18 0,-16 -9,-23 -27,-23l-16 0zm72 63c0,-14 4,-25 11,-32 8,-8 18,-12 31,-12 12,0 21,4 28,11 7,8 10,18 10,31 0,13 -4,24 -11,31 -7,8 -17,12 -29,12 -12,0 -22,-4 -29,-11 -7,-8 -11,-18 -11,-30zm13 -1c0,10 2,17 7,23 5,6 12,9 21,9 8,0 15,-3 19,-9 5,-5 7,-13 7,-23 0,-11 -2,-19 -6,-24 -5,-6 -12,-9 -20,-9 -9,0 -16,3 -21,9 -5,6 -7,14 -7,24zm90 24c8,5 15,8 24,8 12,0 17,-4 17,-12 0,-4 -1,-6 -4,-9 -2,-2 -7,-4 -14,-7 -9,-3 -15,-7 -18,-10 -3,-4 -4,-8 -4,-14 0,-7 3,-12 9,-17 6,-4 13,-6 22,-6 7,0 13,1 18,4l0 12c-6,-4 -13,-5 -20,-5 -5,0 -9,1 -12,3 -3,2 -5,5 -5,8 0,4 1,7 3,8 3,2 7,5 15,8 9,3 15,7 18,10 3,4 5,8 5,14 0,7 -3,13 -9,17 -6,4 -14,6 -23,6 -8,0 -16,-1 -22,-5l0 -13zm119 15c-3,2 -7,3 -12,3 -14,0 -21,-8 -21,-24l0 -49 -14 0 0 -10 14 0 0 -20 12 -4 0 24 21 0 0 10 -21 0 0 47c0,6 1,10 3,12 2,2 5,4 9,4 4,0 7,-1 9,-3l0 10z"/>
  <path class="fil2 str2" d="M92 44l2587 0c29,0 52,23 52,52l0 154c0,29 -23,53 -52,53l-2587 0c-28,0 -52,-24 -52,-53l0 -154c0,-29 24,-52 52,-52z"/>
 </g>
</svg>
