<?xml version="1.0" encoding="UTF-8"?>
<!DOCTYPE svg PUBLIC "-//W3C//DTD SVG 1.1//EN" "http://www.w3.org/Graphics/SVG/1.1/DTD/svg11.dtd">
<!-- Creator: CorelDRAW X7 -->
<svg xmlns="http://www.w3.org/2000/svg" xml:space="preserve" width="750px" height="1334px" version="1.1" style="shape-rendering:geometricPrecision; text-rendering:geometricPrecision; image-rendering:optimizeQuality; fill-rule:evenodd; clip-rule:evenodd"
viewBox="0 0 1895 3371"
 xmlns:xlink="http://www.w3.org/1999/xlink">
 <defs>
  <style type="text/css">
   <![CDATA[
    .str0 {stroke:#F08519;stroke-width:2.27437}
    .str1 {stroke:#234F2D;stroke-width:2.27437}
    .fil4 {fill:none;fill-rule:nonzero}
    .fil0 {fill:#FEFEFE}
    .fil1 {fill:#EEEEEF}
    .fil2 {fill:#F08519;fill-rule:nonzero}
    .fil3 {fill:#234F2D;fill-rule:nonzero}
   ]]>
  </style>
 </defs>
 <g id="圖層_x0020_1">
  <metadata id="CorelCorpID_0Corel-Layer"/>
  <rect class="fil0" width="1895" height="3371"/>
  <rect class="fil1" width="1895" height="164"/>
  <path class="fil2" d="M111 117c0,2 -1,3 -3,3 -2,0 -3,-1 -3,-3l0 -30 -37 0 0 30c0,2 -1,3 -4,3 -2,0 -3,-1 -3,-3l0 -63c0,-2 1,-3 3,-3 3,0 4,1 4,3l0 26 37 0 0 -26c0,-2 1,-3 3,-3 2,0 3,1 3,3l0 63z"/>
  <path id="1" class="fil2" d="M165 116c0,3 -1,4 -3,4 -2,0 -3,-1 -3,-4l0 -4c-4,5 -8,8 -14,8 -6,0 -10,-2 -13,-5 -4,-4 -5,-9 -5,-17l0 -30c0,-3 1,-4 3,-4 2,0 3,1 3,4l0 30c0,10 4,15 12,15 4,0 7,-1 10,-4 3,-3 4,-7 4,-12l0 -29c0,-3 1,-4 3,-4 2,0 3,1 3,4l0 48z"/>
  <path id="2" class="fil2" d="M219 116c0,3 -1,4 -3,4 -2,0 -3,-1 -3,-4l0 -31c0,-9 -5,-14 -13,-14 -4,0 -7,2 -10,6 -3,3 -4,6 -4,10l0 29c0,3 -2,4 -4,4 -2,0 -3,-1 -3,-4l0 -48c0,-2 1,-4 3,-4 2,0 4,2 4,4l0 5c3,-6 8,-9 14,-9 7,0 12,2 15,6 3,4 4,9 4,15l0 31z"/>
  <path id="3" class="fil2" d="M449 117c0,2 -1,3 -3,3 -3,0 -4,-1 -4,-3l0 -30 -37 0 0 30c0,2 -1,3 -3,3 -2,0 -4,-1 -4,-3l0 -63c0,-2 2,-3 4,-3 2,0 3,1 3,3l0 26 37 0 0 -26c0,-2 1,-3 4,-3 2,0 3,1 3,3l0 63z"/>
  <path id="4" class="fil2" d="M503 116c0,3 -1,4 -3,4 -2,0 -4,-1 -4,-4l0 -4c-3,5 -8,8 -14,8 -5,0 -10,-2 -13,-5 -3,-4 -5,-9 -5,-17l0 -30c0,-3 1,-4 3,-4 2,0 4,1 4,4l0 30c0,10 4,15 11,15 4,0 7,-1 10,-4 3,-3 4,-7 4,-12l0 -29c0,-3 1,-4 4,-4 2,0 3,1 3,4l0 48z"/>
  <path id="5" class="fil2" d="M556 116c0,3 -1,4 -3,4 -2,0 -3,-1 -3,-4l0 -31c0,-9 -4,-14 -12,-14 -4,0 -8,2 -11,6 -3,3 -4,6 -4,10l0 29c0,3 -1,4 -3,4 -2,0 -4,-1 -4,-4l0 -48c0,-2 2,-4 4,-4 2,0 3,2 3,4l0 5c3,-6 8,-9 15,-9 6,0 11,2 14,6 3,4 4,9 4,15l0 31z"/>
  <path id="6" class="fil3" d="M272 111c0,6 -1,11 -5,15 -3,4 -8,6 -15,6 -6,0 -11,-2 -15,-5 -2,-2 -3,-3 -3,-5 0,0 0,-1 0,-2 1,0 2,-1 3,-1 1,0 2,1 3,2 3,3 7,5 12,5 5,0 8,-2 10,-5 3,-2 4,-5 4,-10l0 -5c-2,3 -4,5 -6,6 -3,2 -6,3 -9,3 -5,0 -10,-2 -14,-7 -3,-5 -5,-11 -5,-19 0,-7 1,-13 5,-18 4,-4 9,-7 15,-7 2,0 5,1 8,3 2,1 4,3 6,5l0 -4c0,-3 1,-4 3,-4 2,0 3,1 3,4l0 43zm-6 -20c0,-6 -2,-11 -4,-15 -3,-3 -6,-5 -10,-5 -4,0 -7,1 -10,4 -2,3 -4,8 -4,14 0,7 2,12 5,15 2,3 5,4 8,4 4,0 7,-1 10,-4 3,-3 5,-8 5,-13z"/>
  <path id="7" class="fil3" d="M313 67c0,3 -1,4 -4,4 -4,0 -8,2 -11,6 -4,4 -6,9 -6,15l0 24c0,3 -1,4 -3,4 -2,0 -3,-1 -3,-4l0 -48c0,-3 1,-4 3,-4 2,0 3,1 3,4l0 7c5,-7 11,-11 18,-11 2,0 3,1 3,3z"/>
  <path id="8" class="fil3" d="M361 68c0,0 0,0 0,1l-18 52c-1,4 -3,6 -5,8 -2,2 -5,3 -8,3l-6 0c-3,0 -4,-1 -4,-3 0,-2 1,-3 4,-3l6 0c2,0 3,-1 4,-2 1,-1 2,-3 3,-6l2 -5 -16 -44c0,-1 0,-1 0,-1 0,-1 0,-2 1,-3 1,0 1,-1 2,-1 2,0 3,1 3,3l13 36 13 -36c1,-2 2,-3 3,-3 1,0 2,1 2,1 1,1 1,2 1,3z"/>
  <path id="9" class="fil3" d="M599 116c0,3 -1,4 -3,4l-4 0c-9,0 -14,-5 -14,-14l0 -30 -7 0c-2,0 -3,-2 -3,-4 0,-2 1,-3 3,-3l7 0 0 -15c0,-2 1,-4 4,-4 2,0 3,2 3,4l0 15 9 0c2,0 3,1 3,3 0,2 -1,4 -3,4l-9 0 0 30c0,3 0,5 2,6 1,1 3,1 5,1l4 0c2,0 3,1 3,3z"/>
  <path id="10" class="fil3" d="M656 104c0,0 -1,1 -2,3 -5,9 -12,13 -21,13 -7,0 -12,-3 -17,-8 -4,-5 -6,-11 -6,-20 0,-8 2,-14 6,-20 4,-5 10,-8 17,-8 7,0 12,3 17,8 3,4 5,9 5,14 0,5 -2,7 -7,7l-32 0c1,7 2,12 6,15 3,3 7,5 11,5 8,0 13,-3 17,-11 0,-1 1,-2 2,-2 1,0 2,1 3,1 0,1 1,2 1,3zm-7 -18c0,-4 -2,-7 -4,-10 -3,-3 -7,-5 -12,-5 -4,0 -8,1 -11,5 -3,3 -4,6 -5,11l29 0c2,0 3,-1 3,-1z"/>
  <path id="11" class="fil3" d="M695 67c0,3 -1,4 -3,4 -4,0 -8,2 -12,6 -3,4 -5,9 -5,15l0 24c0,3 -1,4 -3,4 -3,0 -4,-1 -4,-4l0 -48c0,-3 1,-4 4,-4 2,0 3,1 3,4l0 7c5,-7 11,-11 17,-11 2,0 3,1 3,3z"/>
  <path id="12" class="fil4 str0" d="M111 117c0,2 -1,3 -3,3 -2,0 -3,-1 -3,-3l0 -30 -37 0 0 30c0,2 -1,3 -4,3 -2,0 -3,-1 -3,-3l0 -63c0,-2 1,-3 3,-3 3,0 4,1 4,3l0 26 37 0 0 -26c0,-2 1,-3 3,-3 2,0 3,1 3,3l0 63z"/>
  <path id="13" class="fil4 str0" d="M165 116c0,3 -1,4 -3,4 -2,0 -3,-1 -3,-4l0 -4c-4,5 -8,8 -14,8 -6,0 -10,-2 -13,-5 -4,-4 -5,-9 -5,-17l0 -30c0,-3 1,-4 3,-4 2,0 3,1 3,4l0 30c0,10 4,15 12,15 4,0 7,-1 10,-4 3,-3 4,-7 4,-12l0 -29c0,-3 1,-4 3,-4 2,0 3,1 3,4l0 48z"/>
  <path id="14" class="fil4 str0" d="M219 116c0,3 -1,4 -3,4 -2,0 -3,-1 -3,-4l0 -31c0,-9 -5,-14 -13,-14 -4,0 -7,2 -10,6 -3,3 -4,6 -4,10l0 29c0,3 -2,4 -4,4 -2,0 -3,-1 -3,-4l0 -48c0,-2 1,-4 3,-4 2,0 4,2 4,4l0 5c3,-6 8,-9 14,-9 7,0 12,2 15,6 3,4 4,9 4,15l0 31z"/>
  <path id="15" class="fil4 str0" d="M449 117c0,2 -1,3 -3,3 -3,0 -4,-1 -4,-3l0 -30 -37 0 0 30c0,2 -1,3 -3,3 -2,0 -4,-1 -4,-3l0 -63c0,-2 2,-3 4,-3 2,0 3,1 3,3l0 26 37 0 0 -26c0,-2 1,-3 4,-3 2,0 3,1 3,3l0 63z"/>
  <path id="16" class="fil4 str0" d="M503 116c0,3 -1,4 -3,4 -2,0 -4,-1 -4,-4l0 -4c-3,5 -8,8 -14,8 -5,0 -10,-2 -13,-5 -3,-4 -5,-9 -5,-17l0 -30c0,-3 1,-4 3,-4 2,0 4,1 4,4l0 30c0,10 4,15 11,15 4,0 7,-1 10,-4 3,-3 4,-7 4,-12l0 -29c0,-3 1,-4 4,-4 2,0 3,1 3,4l0 48z"/>
  <path id="17" class="fil4 str0" d="M556 116c0,3 -1,4 -3,4 -2,0 -3,-1 -3,-4l0 -31c0,-9 -4,-14 -12,-14 -4,0 -8,2 -11,6 -3,3 -4,6 -4,10l0 29c0,3 -1,4 -3,4 -2,0 -4,-1 -4,-4l0 -48c0,-2 2,-4 4,-4 2,0 3,2 3,4l0 5c3,-6 8,-9 15,-9 6,0 11,2 14,6 3,4 4,9 4,15l0 31z"/>
  <path id="18" class="fil4 str1" d="M272 111c0,6 -1,11 -5,15 -3,4 -8,6 -15,6 -6,0 -11,-2 -15,-5 -2,-2 -3,-3 -3,-5 0,0 0,-1 0,-2 1,0 2,-1 3,-1 1,0 2,1 3,2 3,3 7,5 12,5 5,0 8,-2 10,-5 3,-2 4,-5 4,-10l0 -5c-2,3 -4,5 -6,6 -3,2 -6,3 -9,3 -5,0 -10,-2 -14,-7 -3,-5 -5,-11 -5,-19 0,-7 1,-13 5,-18 4,-4 9,-7 15,-7 2,0 5,1 8,3 2,1 4,3 6,5l0 -4c0,-3 1,-4 3,-4 2,0 3,1 3,4l0 43zm-6 -20c0,-6 -2,-11 -4,-15 -3,-3 -6,-5 -10,-5 -4,0 -7,1 -10,4 -2,3 -4,8 -4,14 0,7 2,12 5,15 2,3 5,4 8,4 4,0 7,-1 10,-4 3,-3 5,-8 5,-13z"/>
  <path id="19" class="fil4 str1" d="M313 67c0,3 -1,4 -4,4 -4,0 -8,2 -11,6 -4,4 -6,9 -6,15l0 24c0,3 -1,4 -3,4 -2,0 -3,-1 -3,-4l0 -48c0,-3 1,-4 3,-4 2,0 3,1 3,4l0 7c5,-7 11,-11 18,-11 2,0 3,1 3,3z"/>
  <path id="20" class="fil4 str1" d="M361 68c0,0 0,0 0,1l-18 52c-1,4 -3,6 -5,8 -2,2 -5,3 -8,3l-6 0c-3,0 -4,-1 -4,-3 0,-2 1,-3 4,-3l6 0c2,0 3,-1 4,-2 1,-1 2,-3 3,-6l2 -5 -16 -44c0,-1 0,-1 0,-1 0,-1 0,-2 1,-3 1,0 1,-1 2,-1 2,0 3,1 3,3l13 36 13 -36c1,-2 2,-3 3,-3 1,0 2,1 2,1 1,1 1,2 1,3z"/>
  <path id="21" class="fil4 str1" d="M599 116c0,3 -1,4 -3,4l-4 0c-9,0 -14,-5 -14,-14l0 -30 -7 0c-2,0 -3,-2 -3,-4 0,-2 1,-3 3,-3l7 0 0 -15c0,-2 1,-4 4,-4 2,0 3,2 3,4l0 15 9 0c2,0 3,1 3,3 0,2 -1,4 -3,4l-9 0 0 30c0,3 0,5 2,6 1,1 3,1 5,1l4 0c2,0 3,1 3,3z"/>
  <path id="22" class="fil4 str1" d="M656 104c0,0 -1,1 -2,3 -5,9 -12,13 -21,13 -7,0 -12,-3 -17,-8 -4,-5 -6,-11 -6,-20 0,-8 2,-14 6,-20 4,-5 10,-8 17,-8 7,0 12,3 17,8 3,4 5,9 5,14 0,5 -2,7 -7,7l-32 0c1,7 2,12 6,15 3,3 7,5 11,5 8,0 13,-3 17,-11 0,-1 1,-2 2,-2 1,0 2,1 3,1 0,1 1,2 1,3zm-7 -18c0,-4 -2,-7 -4,-10 -3,-3 -7,-5 -12,-5 -4,0 -8,1 -11,5 -3,3 -4,6 -5,11l29 0c2,0 3,-1 3,-1z"/>
  <path id="23" class="fil4 str1" d="M695 67c0,3 -1,4 -3,4 -4,0 -8,2 -12,6 -3,4 -5,9 -5,15l0 24c0,3 -1,4 -3,4 -3,0 -4,-1 -4,-4l0 -48c0,-3 1,-4 4,-4 2,0 3,1 3,4l0 7c5,-7 11,-11 17,-11 2,0 3,1 3,3z"/>
 </g>
</svg>
