<?xml version="1.0" encoding="UTF-8"?>
<!DOCTYPE svg PUBLIC "-//W3C//DTD SVG 1.1//EN" "http://www.w3.org/Graphics/SVG/1.1/DTD/svg11.dtd">
<!-- Creator: CorelDRAW X7 -->
<svg xmlns="http://www.w3.org/2000/svg" xml:space="preserve" width="10.4132mm" height="10.189mm" version="1.1" style="shape-rendering:geometricPrecision; text-rendering:geometricPrecision; image-rendering:optimizeQuality; fill-rule:evenodd; clip-rule:evenodd"
viewBox="0 0 70 69"
 xmlns:xlink="http://www.w3.org/1999/xlink">
 <defs>
  <style type="text/css">
   <![CDATA[
    .str0 {stroke:#234F2D;stroke-width:3.3678}
    .str1 {stroke:#234F2D;stroke-width:1.34712}
    .fil1 {fill:none}
    .fil2 {fill:#FEFEFE}
    .fil0 {fill:#EEEEEF}
   ]]>
  </style>
 </defs>
 <g id="圖層_x0020_1">
  <metadata id="CorelCorpID_0Corel-Layer"/>
  <rect class="fil0" width="70.1396" height="68.629" rx="14" ry="10"/>
  <polygon class="fil1 str0" points="20,28 56,28 56,37 44,47 8,47 8,38 "/>
  <line class="fil1 str0" x1="44" y1="47" x2="44" y2= "38" />
  <polyline class="fil1 str0" points="8,38 44,38 56,28 "/>
  <polyline class="fil1 str0" points="56,37 56,37 56,46 44,57 8,57 8,48 9,47 "/>
  <line class="fil1 str0" x1="44" y1="57" x2="44" y2= "48" />
  <polyline class="fil1 str0" points="8,48 44,48 56,37 "/>
  <polygon class="fil2 str1" points="31,28 41,28 31,38 31,57 21,57 21,38 "/>
 </g>
</svg>
