<?xml version="1.0" encoding="UTF-8"?>
<!DOCTYPE svg PUBLIC "-//W3C//DTD SVG 1.1//EN" "http://www.w3.org/Graphics/SVG/1.1/DTD/svg11.dtd">
<!-- Creator: CorelDRAW X7 -->
<svg xmlns="http://www.w3.org/2000/svg" xml:space="preserve" width="10.4132mm" height="10.189mm" version="1.1" style="shape-rendering:geometricPrecision; text-rendering:geometricPrecision; image-rendering:optimizeQuality; fill-rule:evenodd; clip-rule:evenodd"
viewBox="0 0 107 105"
 xmlns:xlink="http://www.w3.org/1999/xlink">
 <defs>
  <style type="text/css">
   <![CDATA[
    .str0 {stroke:#234F2D;stroke-width:0.785314}
    .fil0 {fill:#EEEEEF}
    .fil1 {fill:#223542}
    .fil3 {fill:#F8F8F8}
    .fil2 {fill:#F9FAFA}
   ]]>
  </style>
 </defs>
 <g id="圖層_x0020_1">
  <metadata id="CorelCorpID_0Corel-Layer"/>
  <rect class="fil0" width="107" height="105" rx="22" ry="16"/>
  <g id="_385351032">
   <path class="fil1 str0" d="M75 71l6 0c-2,6 -6,10 -10,13 -5,4 -9,2 -16,2 -3,0 -2,0 -3,1 2,2 10,1 15,1 0,4 0,4 -3,4l-15 0c-3,0 -3,0 -3,-4 2,0 3,0 5,-1 -2,-3 -2,2 -10,-4 -2,-1 -6,-5 -7,-7 -1,-1 -2,-3 -2,-5l36 0c2,0 3,0 4,-1 0,-1 1,-1 -4,-1l-37 0 -1 -6 52 0 0 6 -8 0c0,2 0,1 1,2zm-1 -9l-8 0c2,-3 6,-3 8,0zm-23 0l-8 0c2,-3 7,-3 8,0zm11 0c0,-3 1,-4 3,-5 5,-3 12,0 14,5 -5,0 -3,-4 -9,-4 -2,0 -4,0 -5,1 -1,1 -1,2 -3,3zm-3 -6c0,-1 4,0 4,0 0,1 0,0 0,1l-2 1 -2 -2zm-25 6c4,-13 23,-12 26,0 -2,-1 -2,0 -3,-2 -1,-3 -5,-6 -7,-5 0,3 4,2 6,7 -5,0 -2,-4 -9,-4 -6,0 -4,3 -9,4 1,-4 4,-5 7,-6 2,0 2,0 3,-1 -2,-2 -8,0 -11,4 -1,2 0,2 -3,3zm22 -9c3,-1 5,-2 9,0 1,1 1,1 1,2 -2,1 -2,-2 -5,-2 -3,0 -3,3 -5,0zm-3 -1c2,-2 5,-4 9,-3 4,0 7,3 8,5 -3,0 -1,-1 -4,-2 -6,-5 -10,1 -13,0zm-18 -1c1,1 2,2 2,3 -2,0 -5,-5 -6,-6 -3,-2 -6,-5 -5,-7 2,1 7,8 9,10zm6 -9c2,3 4,6 5,8 -1,0 -2,-2 -3,-3 -2,-2 -8,-11 -8,-13 2,0 1,0 2,1l4 7zm-5 -1c1,0 0,0 1,1l3 4c1,1 3,4 3,5l-4 2c-2,-4 -8,-9 -9,-12 -1,0 -4,-3 -6,0 -2,2 1,4 2,5 3,3 7,7 9,9 0,2 -2,4 -3,7 -3,0 -5,-2 -3,6 1,6 4,12 8,15 2,1 5,4 7,5 0,7 1,6 12,6 12,0 12,1 12,-6 8,-4 14,-11 16,-20 2,-10 -1,-5 -3,-7 -2,-2 -2,-4 -6,-6 -6,-2 -1,0 -7,-6 -2,-2 -5,-3 -9,-2 -4,0 -6,2 -7,4 -5,-1 -5,-2 -10,-10 -1,-2 -4,-8 -6,-9 -2,0 -4,2 -2,6 1,1 2,2 2,3z"/>
   <path class="fil2 str0" d="M34 62c3,-1 2,-1 3,-3 3,-4 9,-6 11,-4 -1,1 -1,1 -3,1 -3,1 -6,2 -7,6 5,-1 3,-4 9,-4 7,0 4,4 9,4 -2,-5 -6,-4 -6,-7 2,-1 6,2 7,5 1,2 1,1 3,2 -3,-12 -22,-13 -26,0z"/>
   <path class="fil2 str0" d="M62 62c2,-1 2,-2 3,-3 1,-1 3,-1 5,-1 6,0 4,4 9,4 -2,-5 -9,-8 -14,-5 -2,1 -3,2 -3,5z"/>
   <path class="fil2 str0" d="M46 50c-1,-2 -3,-5 -5,-8l-4 -7c-1,-1 0,-1 -2,-1 0,2 6,11 8,13 1,1 2,3 3,3z"/>
   <path class="fil3 str0" d="M37 54c0,-1 -1,-2 -2,-3 -2,-2 -7,-9 -9,-10 -1,2 2,5 5,7 1,1 4,6 6,6z"/>
   <path class="fil3 str0" d="M53 52c3,1 7,-5 13,0 3,1 1,2 4,2 -1,-2 -4,-5 -8,-5 -4,-1 -7,1 -9,3z"/>
   <path class="fil2 str0" d="M56 53c2,3 2,0 5,0 3,0 3,3 5,2 0,-1 0,-1 -1,-2 -4,-2 -6,-1 -9,0z"/>
   <path class="fil2 str0" d="M51 62c-1,-3 -6,-3 -8,0l8 0z"/>
   <path class="fil3 str0" d="M74 62c-2,-3 -6,-3 -8,0l8 0z"/>
   <path class="fil3 str0" d="M59 56l2 2 2 -1c0,-1 0,0 0,-1 0,0 -4,-1 -4,0z"/>
  </g>
 </g>
</svg>
