<?xml version="1.0" encoding="UTF-8"?>
<!DOCTYPE svg PUBLIC "-//W3C//DTD SVG 1.1//EN" "http://www.w3.org/Graphics/SVG/1.1/DTD/svg11.dtd">
<!-- Creator: CorelDRAW X7 -->
<svg xmlns="http://www.w3.org/2000/svg" xml:space="preserve" width="53.049mm" height="27.1527mm" version="1.1" style="shape-rendering:geometricPrecision; text-rendering:geometricPrecision; image-rendering:optimizeQuality; fill-rule:evenodd; clip-rule:evenodd"
viewBox="0 0 1531 783"
 xmlns:xlink="http://www.w3.org/1999/xlink">
 <defs>
  <style type="text/css">
   <![CDATA[
    .str0 {stroke:#EEEEEF;stroke-width:43.2802}
    .fil1 {fill:none}
    .fil0 {fill:#FEFEFE}
    .fil2 {fill:#C9CACA;fill-rule:nonzero}
   ]]>
  </style>
 </defs>
 <g id="圖層_x0020_1">
  <metadata id="CorelCorpID_0Corel-Layer"/>
  <rect class="fil0" width="1531" height="783" rx="58" ry="45"/>
  <line class="fil1 str0" x1="532" y1="346" x2="998" y2= "346" />
  <line class="fil1 str0" x1="765" y1="578" x2="765" y2= "113" />
  <path class="fil2" d="M635 679l-17 0 0 31 -8 0 0 -31 -17 0 0 -7 17 0 0 -7 -16 0 0 -8 9 0c-1,-3 -2,-6 -4,-10l6 -3 -11 0 0 -7 15 0c-1,-2 -2,-4 -3,-6l9 -2c1,3 3,6 3,8l16 0 0 7 -10 0 5 3c-1,4 -3,7 -4,10l9 0 0 8 -16 0 0 7 17 0 0 7zm-13 -35l-15 0c2,5 3,9 5,13l4 0c3,-4 4,-8 6,-13zm51 21l-9 0 0 45 -8 0 0 -45 -9 0c0,21 -4,36 -10,45l-7 -6c6,-8 9,-20 9,-36l0 -32c10,-1 19,-3 26,-7l5 7c-6,3 -14,5 -23,7l0 14 26 0 0 8zm-40 29l-6 4c-2,-5 -3,-10 -6,-14l7 -3c3,5 4,9 5,13zm-25 -9c-3,8 -6,14 -9,19l-7 -5c3,-5 6,-11 9,-17l7 3z"/>
  <path id="1" class="fil2" d="M737 637l-6 3c-3,-2 -6,-5 -9,-7l7 -4c3,2 6,5 8,8zm25 -4c-3,3 -7,5 -10,7l-6 -4c3,-2 6,-4 9,-7l7 4zm-45 60c-9,4 -17,8 -27,11l-1 -8c2,0 5,-2 9,-3l0 -32 -8 0 0 -8 8 0 0 -23 8 0 0 23 7 0 0 8 -7 0 0 28c2,-1 6,-2 10,-5l1 9zm50 -22l-50 0 0 -30 50 0 0 30zm-8 -8l0 -15 -14 0 0 15 14 0zm-2 -11c-1,4 -2,7 -4,10l-6 -3c2,-2 3,-5 5,-9l5 2zm-19 11l0 -15 -14 0 0 15 14 0zm-3 -4l-6 3c-1,-4 -2,-7 -3,-10l6 -2c1,3 2,6 3,9zm28 51l-8 0 0 -3 -26 0 0 3 -8 0 0 -35 42 0 0 35zm-8 -23l0 -4 -26 0 0 4 26 0zm0 12l0 -5 -26 0 0 5 26 0z"/>
  <path id="2" class="fil2" d="M862 710l-8 0 0 -5 -57 0 0 5 -8 0 0 -79 73 0 0 79zm-8 -12l0 -60 -57 0 0 60 57 0zm-3 -34l-52 0 0 -6 22 0 0 -3 -18 0 0 -14 44 0 0 14 -18 0 0 3 22 0 0 6zm-12 -14l0 -4 -28 0 0 4 28 0zm9 45l-46 0 0 -28 46 0 0 28zm-7 -5l0 -18 -31 0 0 18 31 0zm-5 -3l-21 0 0 -12 21 0 0 12zm-7 -4l0 -4 -7 0 0 4 7 0z"/>
  <path id="3" class="fil2" d="M950 710l-9 0 0 -30 -36 0c-1,11 -6,21 -13,30l-7 -5c8,-10 13,-24 13,-43l0 -31 8 0 0 19 32 0 0 -20 9 0 0 28 -41 0c0,4 0,9 0,14l44 0 0 38z"/>
 </g>
</svg>
