<?xml version="1.0" encoding="UTF-8"?>
<!DOCTYPE svg PUBLIC "-//W3C//DTD SVG 1.1//EN" "http://www.w3.org/Graphics/SVG/1.1/DTD/svg11.dtd">
<!-- Creator: CorelDRAW X7 -->
<svg xmlns="http://www.w3.org/2000/svg" xml:space="preserve" width="24.0726mm" height="10.2272mm" version="1.1" style="shape-rendering:geometricPrecision; text-rendering:geometricPrecision; image-rendering:optimizeQuality; fill-rule:evenodd; clip-rule:evenodd"
viewBox="0 0 452 192"
 xmlns:xlink="http://www.w3.org/1999/xlink">
 <defs>
  <style type="text/css">
   <![CDATA[
    .str0 {stroke:#EEEEEF;stroke-width:3.75667}
    .fil0 {fill:#EEEEEF}
    .fil1 {fill:#234F2D}
   ]]>
  </style>
 </defs>
 <g id="圖層_x0020_1">
  <metadata id="CorelCorpID_0Corel-Layer"/>
  <path class="fil0 str0" d="M40 2l372 0c21,0 38,17 38,38l0 112c0,21 -17,38 -38,38l-372 0c-21,0 -38,-17 -38,-38l0 -112c0,-21 17,-38 38,-38z"/>
  <g id="_888395840">
   <path class="fil1" d="M293 74c-1,5 -1,11 1,13l1 3c3,-1 3,3 5,-4l25 30c2,7 0,0 6,7 2,-1 0,2 2,-2 1,-2 1,-2 1,-4 0,-3 0,-5 0,-9 8,1 17,1 25,-1 5,0 9,-1 11,-4 3,-4 0,-7 -2,-10 10,-3 10,-11 8,-15 -2,-5 -11,-6 -14,-11 -4,-6 1,-14 -4,-18 -8,-7 -12,-1 -16,1 -10,-21 -24,18 -30,25 -6,-4 -13,-8 -19,-1z"/>
   <path class="fil1" d="M275 52c-2,3 -3,4 -4,9l-1 1c2,4 4,13 3,17 -2,6 -8,8 -12,11l-2 0c-2,3 -2,3 -6,4 -1,4 -13,12 -21,21 -5,6 -16,20 -13,30l34 -38c3,-2 3,-4 6,-4 4,-4 20,-16 26,-17 0,-4 -1,-8 1,-11 2,-6 -2,3 0,-2 1,0 1,0 1,-1 0,0 0,0 1,0 0,-5 6,-8 10,-8 6,-1 9,2 13,4 5,-11 17,-34 32,-27l-1 -10c-4,-3 -8,-7 -13,-1 -4,4 -5,7 -10,10 -1,-1 0,0 -1,-2 -2,-3 0,1 -1,-1 -5,-11 -16,-9 -16,6 0,18 -14,8 -19,8 -3,-1 -4,1 -7,1z"/>
   <path class="fil1" d="M319 132l-6 -2c-7,2 -10,7 -18,9 -3,4 -23,12 -31,15 -11,4 -33,8 -34,9 16,10 50,-4 65,-13 5,-3 13,-9 20,-6 7,3 12,11 20,9 13,-4 5,-14 11,-19 6,-7 13,4 21,2 3,-1 10,-6 4,-13l-3 -5c7,-5 11,-2 19,-7 2,-9 -2,-12 -10,-15 1,16 -23,16 -38,17 3,13 -8,25 -20,19z"/>
   <path class="fil1" d="M299 82c-3,0 -24,18 -28,21 -16,10 -44,33 -47,51 8,5 28,-2 36,-5 1,0 57,-23 72,-26 4,-1 -31,-40 -33,-41z"/>
  </g>
 </g>
</svg>
