<?xml version="1.0" encoding="UTF-8"?>
<!DOCTYPE svg PUBLIC "-//W3C//DTD SVG 1.1//EN" "http://www.w3.org/Graphics/SVG/1.1/DTD/svg11.dtd">
<!-- Creator: CorelDRAW X7 -->
<svg xmlns="http://www.w3.org/2000/svg" xml:space="preserve" width="24.0726mm" height="10.2272mm" version="1.1" style="shape-rendering:geometricPrecision; text-rendering:geometricPrecision; image-rendering:optimizeQuality; fill-rule:evenodd; clip-rule:evenodd"
viewBox="0 0 320 136"
 xmlns:xlink="http://www.w3.org/1999/xlink">
 <defs>
  <style type="text/css">
   <![CDATA[
    .str0 {stroke:#EEEEEF;stroke-width:2.65988}
    .fil0 {fill:#EEEEEF}
    .fil1 {fill:#234F2D}
   ]]>
  </style>
 </defs>
 <g id="圖層_x0020_1">
  <metadata id="CorelCorpID_0Corel-Layer"/>
  <path class="fil0 str0" d="M28 1l264 0c15,0 27,12 27,27l0 80c0,15 -12,27 -27,27l-264 0c-15,0 -27,-12 -27,-27l0 -80c0,-15 12,-27 27,-27z"/>
  <g id="_596798312">
   <path class="fil1" d="M264 62l-4 1c0,6 4,13 -2,18 -16,3 -38,-42 -27,-48 6,-2 15,7 16,9 3,-1 3,-1 4,-3 -2,-5 -15,-16 -25,-9l-11 9c-8,5 -16,10 -26,13 -6,2 -9,2 -11,8 -6,17 7,42 25,51 2,1 4,2 7,2 8,1 5,-4 17,-12 7,-5 18,-10 27,-13 6,-3 9,-2 11,-8 2,-5 1,-13 -1,-18z"/>
   <path class="fil1" d="M244 50c-1,6 3,13 9,11 6,-2 11,-3 17,-5 6,-1 15,0 17,-6 0,-3 -2,-6 -3,-8 -3,-1 -7,-1 -10,0 4,-4 5,-10 1,-14 -6,-6 -8,-3 -12,1 -5,8 -13,15 -19,21z"/>
   <path class="fil1" d="M165 105c2,-3 2,-1 2,0 -1,0 -1,0 -2,1l-2 2c-4,9 6,16 11,11 1,-2 4,-6 5,-8 2,-3 4,-5 6,-8 -3,-4 -7,-8 -10,-15 -6,0 -20,0 -22,4 -2,3 0,8 2,10 2,2 6,2 10,3z"/>
   <path class="fil1" d="M241 39l0 0c-3,-1 -4,-2 -7,-1 -5,6 2,19 5,25 3,4 14,18 19,10 -1,-2 -1,2 -6,-1 -7,-4 -21,-24 -15,-33l4 0z"/>
   <path class="fil1" d="M163 108l2 -2c1,-1 1,-1 2,-1 0,-1 0,-3 -2,0l1 0c-1,0 -1,0 -2,1 0,1 0,1 -1,2z"/>
   <polygon class="fil1" points="241,39 241,39 242,40 "/>
  </g>
 </g>
</svg>
